<svg xmlns="http://www.w3.org/2000/svg" width="2200" height="1010" viewBox="0 0 2200 1010" role="img" aria-labelledby="title desc"><title id="title">Copy the outgoing user context into PCB 3.activation</title><desc id="desc">SRAM contains Kernel Image, Kernel Heap, Kernel Stack and Process and Shared Data Heap. active_process and the local process point to PCB 3. caller_context is a kernel-call argument pointing to the free cell below the user process&#x27;s saved interrupt frame. Stack offsets 1 through 6 hold DS, CS, BAF, IN2, IN1 and ACC. Each value is copied to its named activation field in the same PCB allocation. activation.sp receives the address caller_context + 6, not the ACC value. The saved PC at offset 7 stays on the user stack. Lower panels are an assignment view with exact PCB offsets, not the physical ordering of activation fields. Dashed zoom guides connect the bottom corners of the activation and User Process Stack regions in the SRAM map to the top corners of their respective detail panels.</desc><defs><marker id="405ea8" viewBox="0 0 10 10" refX="9" refY="5" markerWidth="6" markerHeight="6" orient="auto"><path d="M 0 0 L 10 5 L 0 10 z" fill="#167b84"/></marker><marker id="26715b" viewBox="0 0 10 10" refX="9" refY="5" markerWidth="6" markerHeight="6" orient="auto"><path d="M 0 0 L 10 5 L 0 10 z" fill="#25734f"/></marker><marker id="785099" viewBox="0 0 10 10" refX="9" refY="5" markerWidth="6" markerHeight="6" orient="auto"><path d="M 0 0 L 10 5 L 0 10 z" fill="#637983"/></marker><marker id="9c3d15" viewBox="0 0 10 10" refX="9" refY="5" markerWidth="6" markerHeight="6" orient="auto"><path d="M 0 0 L 10 5 L 0 10 z" fill="#805916"/></marker></defs><g font-family="Cantarell, sans-serif"><rect x="32" y="270" width="60" height="150" fill="#f4f8f8" stroke="#637983" stroke-width="1"/><text x="62.0" y="350.0" text-anchor="middle" font-size="15" font-weight="bold" fill="#17313a">.ivt</text><rect x="92" y="270" width="100" height="150" fill="#f4f8f8" stroke="#637983" stroke-width="1"/><text x="142.0" y="339.5" text-anchor="middle" font-size="15" font-weight="bold" fill="#17313a">.text</text><text x="142.0" y="360.5" text-anchor="middle" font-size="13.559322033898306" font-weight="normal" fill="#17313a">kernel code</text><rect x="192" y="270" width="250" height="150" fill="#f4f8f8" stroke="#637983" stroke-width="1"/><text x="317.0" y="318.5" text-anchor="middle" font-size="15" font-weight="bold" fill="#17313a">.data · kernel globals</text><text x="317.0" y="339.5" text-anchor="middle" font-size="15" font-weight="normal" fill="#17313a">kernel_heap.first_block</text><text x="317.0" y="360.5" text-anchor="middle" font-size="15" font-weight="normal" fill="#17313a">process_list_head</text><text x="317.0" y="381.5" text-anchor="middle" font-size="15" font-weight="normal" fill="#17313a">active_process</text><rect x="442" y="270" width="60" height="150" fill="#eaf3f4" stroke="#637983" stroke-width="1"/><a href="../../common/heap.header#L5"><text x="472.0" y="339.5" text-anchor="middle" font-size="15" font-weight="bold" fill="#17313a">Block</text></a><a href="../../common/heap.header#L5"><text x="472.0" y="360.5" text-anchor="middle" font-size="10.16949152542373" font-weight="normal" fill="#17313a">Header A</text></a><rect x="502" y="270" width="170" height="150" fill="#f4f8f8" stroke="#637983" stroke-width="1"/><a href="../../kernel/process/process.header#L31"><text x="587.0" y="339.5" text-anchor="middle" font-size="15" font-weight="bold" fill="#17313a">Payload A</text></a><a href="../../kernel/process/process.header#L31"><text x="587.0" y="360.5" text-anchor="middle" font-size="15" font-weight="normal" fill="#17313a">PCB 1</text></a><rect x="672" y="270" width="60" height="150" fill="#eaf3f4" stroke="#637983" stroke-width="1"/><a href="../../common/heap.header#L5"><text x="702.0" y="339.5" text-anchor="middle" font-size="15" font-weight="bold" fill="#17313a">Block</text></a><a href="../../common/heap.header#L5"><text x="702.0" y="360.5" text-anchor="middle" font-size="10.16949152542373" font-weight="normal" fill="#17313a">Header B</text></a><rect x="732" y="270" width="100" height="150" fill="#f4f8f8" stroke="#637983" stroke-width="1"/><a href="../../kernel/process/process.header#L31"><text x="782.0" y="339.5" text-anchor="middle" font-size="15" font-weight="bold" fill="#17313a">PCB 3</text></a><a href="../../kernel/process/process.header#L31"><text x="782.0" y="360.5" text-anchor="middle" font-size="15" font-weight="normal" fill="#17313a">cells 0–7</text></a><rect x="832" y="270" width="300" height="150" fill="#d8efef" stroke="#637983" stroke-width="1"/><a href="../../kernel/process/process.header#L40"><text x="982.0" y="339.5" text-anchor="middle" font-size="15" font-weight="bold" fill="#17313a">activation</text></a><a href="../../kernel/process/process.header#L40"><text x="982.0" y="360.5" text-anchor="middle" font-size="15" font-weight="normal" fill="#17313a">cells 8–14</text></a><rect x="1132" y="270" width="100" height="150" fill="#f4f8f8" stroke="#637983" stroke-width="1"/><a href="../../kernel/process/process.header#L31"><text x="1182.0" y="339.5" text-anchor="middle" font-size="15" font-weight="bold" fill="#17313a">cells 15+</text></a><a href="../../kernel/process/process.header#L31"><text x="1182.0" y="360.5" text-anchor="middle" font-size="12.429378531073446" font-weight="normal" fill="#17313a">other fields</text></a><rect x="1232" y="270" width="160" height="150" fill="#f4f8f8" stroke="#637983" stroke-width="1"/><text x="1312.0" y="339.5" text-anchor="middle" font-size="15" font-weight="bold" fill="#17313a">Kernel Stack</text><text x="1312.0" y="360.5" text-anchor="middle" font-size="15" font-weight="normal" fill="#17313a">caller_context</text><rect x="1392" y="270" width="70" height="150" fill="#eaf3f4" stroke="#637983" stroke-width="1"/><a href="../../common/heap.header#L5"><text x="1427.0" y="329.0" text-anchor="middle" font-size="15" font-weight="bold" fill="#17313a">Outer</text></a><a href="../../common/heap.header#L5"><text x="1427.0" y="350.0" text-anchor="middle" font-size="15" font-weight="normal" fill="#17313a">Block</text></a><a href="../../common/heap.header#L5"><text x="1427.0" y="371.0" text-anchor="middle" font-size="12.288135593220339" font-weight="normal" fill="#17313a">Header A</text></a><rect x="1462" y="270" width="240" height="150" fill="#f4f8f8" stroke="#637983" stroke-width="1"/><text x="1582.0" y="329.0" text-anchor="middle" font-size="15" font-weight="bold" fill="#17313a">User Process Image</text><text x="1582.0" y="350.0" text-anchor="middle" font-size="15" font-weight="normal" fill="#17313a">PCB 3</text><text x="1582.0" y="371.0" text-anchor="middle" font-size="15" font-weight="normal" fill="#17313a">.text · .data</text><rect x="1702" y="270" width="140" height="150" fill="#f4f8f8" stroke="#637983" stroke-width="1"/><text x="1772.0" y="339.5" text-anchor="middle" font-size="15" font-weight="bold" fill="#17313a">User</text><text x="1772.0" y="360.5" text-anchor="middle" font-size="15" font-weight="normal" fill="#17313a">Process Heap</text><rect x="1842" y="270" width="310" height="150" fill="#d8efef" stroke="#637983" stroke-width="1"/><text x="1997.0" y="339.5" text-anchor="middle" font-size="15" font-weight="bold" fill="#17313a">User Process Stack</text><text x="1997.0" y="360.5" text-anchor="middle" font-size="15" font-weight="normal" fill="#17313a">saved interrupt frame</text><rect x="32" y="270" width="2120" height="150" fill="none" stroke="#637983" stroke-width="1.5"/><rect x="32" y="420" width="410" height="30" fill="#f4f8f8" stroke="#637983" stroke-width="1"/><text x="237.0" y="441" text-anchor="middle" font-size="15" font-weight="bold" fill="#17313a">Kernel Image</text><rect x="442" y="420" width="790" height="30" fill="#f4f8f8" stroke="#637983" stroke-width="1"/><text x="837.0" y="441" text-anchor="middle" font-size="15" font-weight="bold" fill="#17313a">Kernel Heap</text><rect x="1232" y="420" width="160" height="30" fill="#f4f8f8" stroke="#637983" stroke-width="1"/><text x="1312.0" y="441" text-anchor="middle" font-size="15" font-weight="bold" fill="#17313a">Kernel Stack</text><rect x="1462" y="420" width="240" height="30" fill="#f4f8f8" stroke="#637983" stroke-width="1"/><text x="1582.0" y="441" text-anchor="middle" font-size="15" font-weight="bold" fill="#17313a">User Process Image</text><rect x="1702" y="420" width="140" height="30" fill="#f4f8f8" stroke="#637983" stroke-width="1"/><text x="1772.0" y="441" text-anchor="middle" font-size="11.948529411764705" font-weight="bold" fill="#17313a">User Process Heap</text><rect x="1842" y="420" width="310" height="30" fill="#d8efef" stroke="#637983" stroke-width="1"/><text x="1997.0" y="441" text-anchor="middle" font-size="15" font-weight="bold" fill="#17313a">User Process Stack</text><rect x="32" y="450" width="1360" height="30" fill="#f4f8f8" stroke="#637983" stroke-width="1"/><text x="712.0" y="471" text-anchor="middle" font-size="15" font-weight="bold" fill="#17313a">Kernel</text><rect x="1392" y="450" width="760" height="30" fill="#f4f8f8" stroke="#637983" stroke-width="1"/><text x="1772.0" y="471" text-anchor="middle" font-size="15" font-weight="bold" fill="#17313a">Process and Shared Data Heap</text><rect x="732" y="480" width="500" height="30" fill="#d8efef" stroke="#637983" stroke-width="1"/><text x="982.0" y="501" text-anchor="middle" font-size="15" font-weight="bold" fill="#17313a">Payload B · PCB 3</text><rect x="1462" y="480" width="690" height="30" fill="#d8efef" stroke="#637983" stroke-width="1"/><text x="1807.0" y="501" text-anchor="middle" font-size="15" font-weight="bold" fill="#17313a">Process Payload A · PCB 3</text><path d="M 232.0 270 C 232.0 80, 472.0 80, 472.0 270" fill="none" stroke="#167b84" stroke-width="2" marker-end="url(#405ea8)"/><rect x="380.4" y="112.5" width="209.20000000000002" height="22" fill="white" stroke="none" stroke-width="1"/><text x="485" y="128.5" text-anchor="middle" font-size="14" font-weight="normal" fill="#167b84">kernel_heap.first_block</text><path d="M 302.0 270 C 302.0 140, 587.0 140, 587.0 270" fill="none" stroke="#167b84" stroke-width="2" marker-end="url(#405ea8)"/><rect x="490.6" y="157.5" width="158.8" height="22" fill="white" stroke="none" stroke-width="1"/><text x="570" y="173.5" text-anchor="middle" font-size="14" font-weight="normal" fill="#167b84">process_list_head</text><path d="M 407.0 270 C 407.0 205, 757.0 205, 757.0 270" fill="none" stroke="#25734f" stroke-width="2" marker-end="url(#26715b)"/><rect x="708.2" y="206.25" width="133.60000000000002" height="22" fill="white" stroke="none" stroke-width="1"/><text x="775" y="222.25" text-anchor="middle" font-size="14" font-weight="normal" fill="#25734f">active_process</text><path d="M 1337.0 270 C 1337.0 130, 1997.0 130, 1997.0 270" fill="none" stroke="#167b84" stroke-width="2" marker-end="url(#405ea8)"/><rect x="1600.2" y="150.0" width="133.60000000000002" height="22" fill="white" stroke="none" stroke-width="1"/><text x="1667.0" y="166.0" text-anchor="middle" font-size="14" font-weight="normal" fill="#167b84">caller_context</text><rect x="832" y="270" width="300" height="150" fill="none" stroke="#805916" stroke-width="3"/><path d="M 832 420 L 140 608 M 1132 420 L 840 608 M 1842 420 L 1220 560 M 2152 420 L 2120 560" fill="none" stroke="#9db7bc" stroke-width="2" stroke-dasharray="5 4"/><rect x="1220" y="560" width="250" height="48" fill="#f4f8f8" stroke="#637983" stroke-width="1"/><rect x="1470" y="560" width="650" height="48" fill="#f4f8f8" stroke="#637983" stroke-width="1"/><text x="1345" y="591" text-anchor="middle" font-size="18" font-weight="normal" fill="#17313a">caller_context + 0</text><text x="1795" y="591" text-anchor="middle" font-size="21" font-weight="bold" fill="#17313a">free cell</text><rect x="1220" y="608" width="250" height="48" fill="#f4f8f8" stroke="#637983" stroke-width="1"/><rect x="1470" y="608" width="650" height="48" fill="#d8efef" stroke="#637983" stroke-width="1"/><text x="1345" y="639" text-anchor="middle" font-size="18" font-weight="normal" fill="#17313a">caller_context + 1</text><text x="1795" y="639" text-anchor="middle" font-size="21" font-weight="bold" fill="#17313a">DS</text><rect x="140" y="608" width="480" height="48" fill="#d8efef" stroke="#637983" stroke-width="1"/><rect x="620" y="608" width="220" height="48" fill="#f4f8f8" stroke="#637983" stroke-width="1"/><a href="../../kernel/process/process.header#L28"><text x="380" y="639" text-anchor="middle" font-size="22" font-weight="normal" fill="#17313a">activation.ds</text></a><text x="730" y="639" text-anchor="middle" font-size="19" font-weight="normal" fill="#17313a">PCB 3 + 14</text><path d="M 1216 632 H 845" fill="none" stroke="#637983" stroke-width="2" marker-end="url(#785099)"/><a href="../../kernel/dispatcher.picoc#L76"><text x="1030" y="624" text-anchor="middle" font-size="18" font-weight="normal" fill="#637983">caller_context[1]</text></a><rect x="1220" y="656" width="250" height="48" fill="#f4f8f8" stroke="#637983" stroke-width="1"/><rect x="1470" y="656" width="650" height="48" fill="#d8efef" stroke="#637983" stroke-width="1"/><text x="1345" y="687" text-anchor="middle" font-size="18" font-weight="normal" fill="#17313a">caller_context + 2</text><text x="1795" y="687" text-anchor="middle" font-size="21" font-weight="bold" fill="#17313a">CS</text><rect x="140" y="656" width="480" height="48" fill="#d8efef" stroke="#637983" stroke-width="1"/><rect x="620" y="656" width="220" height="48" fill="#f4f8f8" stroke="#637983" stroke-width="1"/><a href="../../kernel/process/process.header#L27"><text x="380" y="687" text-anchor="middle" font-size="22" font-weight="normal" fill="#17313a">activation.cs</text></a><text x="730" y="687" text-anchor="middle" font-size="19" font-weight="normal" fill="#17313a">PCB 3 + 13</text><path d="M 1216 680 H 845" fill="none" stroke="#637983" stroke-width="2" marker-end="url(#785099)"/><a href="../../kernel/dispatcher.picoc#L77"><text x="1030" y="672" text-anchor="middle" font-size="18" font-weight="normal" fill="#637983">caller_context[2]</text></a><rect x="1220" y="704" width="250" height="48" fill="#f4f8f8" stroke="#637983" stroke-width="1"/><rect x="1470" y="704" width="650" height="48" fill="#d8efef" stroke="#637983" stroke-width="1"/><text x="1345" y="735" text-anchor="middle" font-size="18" font-weight="normal" fill="#17313a">caller_context + 3</text><text x="1795" y="735" text-anchor="middle" font-size="21" font-weight="bold" fill="#17313a">BAF</text><rect x="140" y="704" width="480" height="48" fill="#d8efef" stroke="#637983" stroke-width="1"/><rect x="620" y="704" width="220" height="48" fill="#f4f8f8" stroke="#637983" stroke-width="1"/><a href="../../kernel/process/process.header#L26"><text x="380" y="735" text-anchor="middle" font-size="22" font-weight="normal" fill="#17313a">activation.baf</text></a><text x="730" y="735" text-anchor="middle" font-size="19" font-weight="normal" fill="#17313a">PCB 3 + 12</text><path d="M 1216 728 H 845" fill="none" stroke="#637983" stroke-width="2" marker-end="url(#785099)"/><a href="../../kernel/dispatcher.picoc#L78"><text x="1030" y="720" text-anchor="middle" font-size="18" font-weight="normal" fill="#637983">caller_context[3]</text></a><rect x="1220" y="752" width="250" height="48" fill="#f4f8f8" stroke="#637983" stroke-width="1"/><rect x="1470" y="752" width="650" height="48" fill="#d8efef" stroke="#637983" stroke-width="1"/><text x="1345" y="783" text-anchor="middle" font-size="18" font-weight="normal" fill="#17313a">caller_context + 4</text><text x="1795" y="783" text-anchor="middle" font-size="21" font-weight="bold" fill="#17313a">IN2</text><rect x="140" y="752" width="480" height="48" fill="#d8efef" stroke="#637983" stroke-width="1"/><rect x="620" y="752" width="220" height="48" fill="#f4f8f8" stroke="#637983" stroke-width="1"/><a href="../../kernel/process/process.header#L23"><text x="380" y="783" text-anchor="middle" font-size="22" font-weight="normal" fill="#17313a">activation.in2</text></a><text x="730" y="783" text-anchor="middle" font-size="19" font-weight="normal" fill="#17313a">PCB 3 + 9</text><path d="M 1216 776 H 845" fill="none" stroke="#637983" stroke-width="2" marker-end="url(#785099)"/><a href="../../kernel/dispatcher.picoc#L79"><text x="1030" y="768" text-anchor="middle" font-size="18" font-weight="normal" fill="#637983">caller_context[4]</text></a><rect x="1220" y="800" width="250" height="48" fill="#f4f8f8" stroke="#637983" stroke-width="1"/><rect x="1470" y="800" width="650" height="48" fill="#d8efef" stroke="#637983" stroke-width="1"/><text x="1345" y="831" text-anchor="middle" font-size="18" font-weight="normal" fill="#17313a">caller_context + 5</text><text x="1795" y="831" text-anchor="middle" font-size="21" font-weight="bold" fill="#17313a">IN1</text><rect x="140" y="800" width="480" height="48" fill="#d8efef" stroke="#637983" stroke-width="1"/><rect x="620" y="800" width="220" height="48" fill="#f4f8f8" stroke="#637983" stroke-width="1"/><a href="../../kernel/process/process.header#L22"><text x="380" y="831" text-anchor="middle" font-size="22" font-weight="normal" fill="#17313a">activation.in1</text></a><text x="730" y="831" text-anchor="middle" font-size="19" font-weight="normal" fill="#17313a">PCB 3 + 8</text><path d="M 1216 824 H 845" fill="none" stroke="#637983" stroke-width="2" marker-end="url(#785099)"/><a href="../../kernel/dispatcher.picoc#L80"><text x="1030" y="816" text-anchor="middle" font-size="18" font-weight="normal" fill="#637983">caller_context[5]</text></a><rect x="1220" y="848" width="250" height="48" fill="#f4f8f8" stroke="#637983" stroke-width="1"/><rect x="1470" y="848" width="650" height="48" fill="#d8efef" stroke="#637983" stroke-width="1"/><text x="1345" y="879" text-anchor="middle" font-size="18" font-weight="normal" fill="#17313a">caller_context + 6</text><text x="1795" y="879" text-anchor="middle" font-size="21" font-weight="bold" fill="#17313a">ACC</text><rect x="140" y="848" width="480" height="48" fill="#d8efef" stroke="#637983" stroke-width="1"/><rect x="620" y="848" width="220" height="48" fill="#f4f8f8" stroke="#637983" stroke-width="1"/><a href="../../kernel/process/process.header#L24"><text x="380" y="879" text-anchor="middle" font-size="22" font-weight="normal" fill="#17313a">activation.acc</text></a><text x="730" y="879" text-anchor="middle" font-size="19" font-weight="normal" fill="#17313a">PCB 3 + 10</text><path d="M 1216 872 H 845" fill="none" stroke="#637983" stroke-width="2" marker-end="url(#785099)"/><a href="../../kernel/dispatcher.picoc#L81"><text x="1030" y="864" text-anchor="middle" font-size="18" font-weight="normal" fill="#637983">caller_context[6]</text></a><rect x="1220" y="896" width="250" height="48" fill="#f4f8f8" stroke="#637983" stroke-width="1"/><rect x="1470" y="896" width="650" height="48" fill="#eaf3f4" stroke="#637983" stroke-width="1"/><text x="1345" y="927" text-anchor="middle" font-size="18" font-weight="normal" fill="#17313a">caller_context + 7</text><text x="1795" y="927" text-anchor="middle" font-size="21" font-weight="bold" fill="#17313a">PC</text><a href="../../kernel/dispatcher.picoc#L71"><text x="1130" y="585" text-anchor="end" font-size="18" font-weight="normal" fill="#167b84">caller_context</text></a><path d="M 1145 580 H 1216" fill="none" stroke="#167b84" stroke-width="2" marker-end="url(#405ea8)"/><rect x="140" y="896" width="480" height="48" fill="#d8efef" stroke="#637983" stroke-width="1"/><rect x="620" y="896" width="220" height="48" fill="#f4f8f8" stroke="#637983" stroke-width="1"/><a href="../../kernel/process/process.header#L25"><text x="380" y="927" text-anchor="middle" font-size="22" font-weight="normal" fill="#17313a">activation.sp</text></a><text x="730" y="927" text-anchor="middle" font-size="19" font-weight="normal" fill="#17313a">PCB 3 + 11</text><path d="M 1220 885 H 1185 V 984 H 380 V 949" fill="none" stroke="#167b84" stroke-width="2" marker-end="url(#405ea8)"/><a href="../../kernel/dispatcher.picoc#L75"><text x="1025" y="970" text-anchor="middle" font-size="19" font-weight="normal" fill="#167b84">caller_context + 6</text></a></g></svg>
