<svg xmlns="http://www.w3.org/2000/svg" width="1824" height="735" viewBox="0 0 1824 735" role="img" aria-labelledby="title desc"><title id="title">Load step 2 · completed image, appended PCB, preliminary stack</title><desc id="desc">After transfer, create_process allocates PCB 2 in the Kernel Heap and initializes state to NEW. The previous tail PCB 1 receives next = PCB 2 and process_list_tail changes to PCB 2. The new PCB points to a fresh standard descriptor table and its Process Payload. create_process writes cs minus one into the cell at highest_stack_address. The argument and environment layout does not exist yet.</desc><defs><marker id="405ea8" viewBox="0 0 10 10" refX="9" refY="5" markerWidth="6" markerHeight="6" orient="auto"><path d="M 0 0 L 10 5 L 0 10 z" fill="#167b84"/></marker><marker id="26715b" viewBox="0 0 10 10" refX="9" refY="5" markerWidth="6" markerHeight="6" orient="auto"><path d="M 0 0 L 10 5 L 0 10 z" fill="#25734f"/></marker><marker id="785099" viewBox="0 0 10 10" refX="9" refY="5" markerWidth="6" markerHeight="6" orient="auto"><path d="M 0 0 L 10 5 L 0 10 z" fill="#167b84"/></marker><marker id="9c3d15" viewBox="0 0 10 10" refX="9" refY="5" markerWidth="6" markerHeight="6" orient="auto"><path d="M 0 0 L 10 5 L 0 10 z" fill="#805916"/></marker></defs><g font-family="Cantarell, sans-serif"><g transform="translate(0,-125)"><path data-presentation="payload-zoom-guides" d="M 1567 480 L 32 615 M 1717 480 L 1792 615" fill="none" stroke="#637983" stroke-width="2" stroke-dasharray="10 8"/><rect x="32" y="250" width="70" height="170" fill="#f4f8f8" stroke="#637983" stroke-width="1"/><text x="67.0" y="340.0" text-anchor="middle" font-size="15" font-weight="bold" fill="#17313a">.ivt</text><rect x="102" y="250" width="110" height="170" fill="#f4f8f8" stroke="#637983" stroke-width="1"/><text x="157.0" y="340.0" text-anchor="middle" font-size="15" font-weight="bold" fill="#17313a">.text</text><rect x="212" y="250" width="260" height="170" fill="#f4f8f8" stroke="#637983" stroke-width="1"/><text x="342.0" y="308.5" text-anchor="middle" font-size="15" font-weight="bold" fill="#17313a">.data · kernel globals</text><text x="342.0" y="329.5" text-anchor="middle" font-size="15" font-weight="normal" fill="#17313a">process_list_head = PCB 1</text><text x="342.0" y="350.5" text-anchor="middle" font-size="15" font-weight="normal" fill="#17313a">process_list_tail = PCB 2</text><text x="342.0" y="371.5" text-anchor="middle" font-size="15" font-weight="normal" fill="#17313a">active_process = PCB 1</text><rect x="472" y="250" width="65" height="170" fill="#eaf3f4" stroke="#637983" stroke-width="1"/><text x="504.5" y="329.5" text-anchor="middle" font-size="15" font-weight="bold" fill="#17313a">Block</text><text x="504.5" y="350.5" text-anchor="middle" font-size="11.228813559322035" font-weight="normal" fill="#17313a">Header A</text><rect x="537" y="250" width="200" height="170" fill="#f4f8f8" stroke="#637983" stroke-width="1"/><text x="637.0" y="308.5" text-anchor="middle" font-size="15" font-weight="bold" fill="#17313a">Payload A · PCB 1</text><text x="637.0" y="329.5" text-anchor="middle" font-size="14.483821263482282" font-weight="normal" fill="#17313a">caller / previous tail</text><text x="637.0" y="350.5" text-anchor="middle" font-size="15" font-weight="normal" fill="#17313a">next = PCB 2</text><text x="637.0" y="371.5" text-anchor="middle" font-size="15" font-weight="normal" fill="#17313a">pending_load = NULL</text><rect x="737" y="250" width="65" height="170" fill="#eaf3f4" stroke="#637983" stroke-width="1"/><text x="769.5" y="329.5" text-anchor="middle" font-size="15" font-weight="bold" fill="#17313a">Block</text><text x="769.5" y="350.5" text-anchor="middle" font-size="11.228813559322035" font-weight="normal" fill="#17313a">Header B</text><rect x="802" y="250" width="270" height="170" fill="#d8efef" stroke="#637983" stroke-width="1"/><text x="937.0" y="277.0" text-anchor="middle" font-size="15" font-weight="bold" fill="#17313a">Payload B · PCB 2</text><text x="937.0" y="298.0" text-anchor="middle" font-size="15" font-weight="normal" fill="#17313a">state = NEW</text><text x="937.0" y="319.0" text-anchor="middle" font-size="14.576271186440678" font-weight="normal" fill="#17313a">sp = highest_stack_address − 1</text><text x="937.0" y="340.0" text-anchor="middle" font-size="15" font-weight="normal" fill="#17313a">baf = highest_stack_address</text><text x="937.0" y="361.0" text-anchor="middle" font-size="15" font-weight="normal" fill="#17313a">cs = base + code_start</text><text x="937.0" y="382.0" text-anchor="middle" font-size="15" font-weight="normal" fill="#17313a">ds = base + data_start</text><text x="937.0" y="403.0" text-anchor="middle" font-size="15" font-weight="normal" fill="#17313a">next = NULL</text><rect x="1072" y="250" width="65" height="170" fill="#eaf3f4" stroke="#637983" stroke-width="1"/><text x="1104.5" y="329.5" text-anchor="middle" font-size="15" font-weight="bold" fill="#17313a">Block</text><text x="1104.5" y="350.5" text-anchor="middle" font-size="11.228813559322035" font-weight="normal" fill="#17313a">Header C</text><rect x="1137" y="250" width="210" height="170" fill="#d8efef" stroke="#637983" stroke-width="1"/><text x="1242.0" y="319.0" text-anchor="middle" font-size="15" font-weight="bold" fill="#17313a">Payload C</text><text x="1242.0" y="340.0" text-anchor="middle" font-size="15" font-weight="normal" fill="#17313a">child descriptor table</text><text x="1242.0" y="361.0" text-anchor="middle" font-size="15" font-weight="normal" fill="#17313a">fresh standard entries</text><rect x="1347" y="250" width="130" height="170" fill="#f4f8f8" stroke="#637983" stroke-width="1"/><text x="1412.0" y="329.5" text-anchor="middle" font-size="15" font-weight="bold" fill="#17313a">Other blocks</text><text x="1412.0" y="350.5" text-anchor="middle" font-size="13.333333333333334" font-weight="normal" fill="#17313a">paths · entries</text><rect x="1477" y="250" width="90" height="170" fill="#f4f8f8" stroke="#637983" stroke-width="1"/><text x="1522.0" y="329.5" text-anchor="middle" font-size="15" font-weight="bold" fill="#17313a">Kernel</text><text x="1522.0" y="350.5" text-anchor="middle" font-size="15" font-weight="normal" fill="#17313a">Stack</text><rect x="1567" y="250" width="150" height="170" fill="#f4f8f8" stroke="#637983" stroke-width="1"/><text x="1642.0" y="319.0" text-anchor="middle" font-size="15" font-weight="bold" fill="#17313a">Process and</text><text x="1642.0" y="340.0" text-anchor="middle" font-size="15" font-weight="normal" fill="#17313a">Shared Data</text><text x="1642.0" y="361.0" text-anchor="middle" font-size="15" font-weight="normal" fill="#17313a">Heap</text><rect x="32" y="250" width="1685" height="170" fill="none" stroke="#637983" stroke-width="1.5"/><rect x="32" y="420" width="440" height="30" fill="#f4f8f8" stroke="#637983" stroke-width="1"/><text x="252.0" y="441" text-anchor="middle" font-size="15" font-weight="bold" fill="#17313a">Kernel Image</text><rect x="472" y="420" width="1005" height="30" fill="#f4f8f8" stroke="#637983" stroke-width="1"/><text x="974.5" y="441" text-anchor="middle" font-size="15" font-weight="bold" fill="#17313a">Kernel Heap</text><rect x="1477" y="420" width="90" height="30" fill="#f4f8f8" stroke="#637983" stroke-width="1"/><text x="1522.0" y="441" text-anchor="middle" font-size="10.416666666666668" font-weight="bold" fill="#17313a">Kernel Stack</text><rect x="1567" y="420" width="150" height="30" fill="#f4f8f8" stroke="#637983" stroke-width="1"/><text x="1642.0" y="441" text-anchor="middle" font-size="15" font-weight="bold" fill="#17313a">Outer heap</text><rect x="32" y="450" width="1535" height="30" fill="#f4f8f8" stroke="#637983" stroke-width="1"/><text x="799.5" y="471" text-anchor="middle" font-size="15" font-weight="bold" fill="#17313a">Kernel area</text><rect x="1567" y="450" width="150" height="30" fill="#f4f8f8" stroke="#637983" stroke-width="1"/><text x="1642.0" y="471" text-anchor="middle" font-size="15" font-weight="bold" fill="#17313a">After kernel</text><path d="M 1017.0 250 C 1017.0 180, 1242.0 180, 1242.0 250" fill="none" stroke="#167b84" stroke-width="2" marker-end="url(#785099)"/><rect x="1054.3" y="182.5" width="150.4" height="22" fill="white" stroke="none" stroke-width="1"/><text x="1129.5" y="198.5" text-anchor="middle" font-size="14" font-weight="normal" fill="#167b84">file_descriptors</text><path d="M 607.0 250 C 607.0 155, 937.0 155, 937.0 250" fill="none" stroke="#167b84" stroke-width="2" marker-end="url(#405ea8)"/><rect x="747.2" y="163.75" width="49.6" height="22" fill="white" stroke="none" stroke-width="1"/><text x="772.0" y="179.75" text-anchor="middle" font-size="14" font-weight="normal" fill="#167b84">next</text><rect x="802" y="250" width="270" height="170" fill="none" stroke="#805916" stroke-width="3"/><rect x="32" y="615" width="100" height="160" fill="#eaf3f4" stroke="#637983" stroke-width="1"/><text x="82.0" y="689.5" text-anchor="middle" font-size="13.559322033898306" font-weight="bold" fill="#17313a">Outer Block</text><text x="82.0" y="710.5" text-anchor="middle" font-size="15" font-weight="normal" fill="#17313a">Header B</text><rect x="132" y="615" width="130" height="160" fill="#f4f8f8" stroke="#637983" stroke-width="1"/><text x="197.0" y="700.0" text-anchor="middle" font-size="15" font-weight="bold" fill="#17313a">optional .ivt</text><rect x="262" y="615" width="270" height="160" fill="#f4f8f8" stroke="#637983" stroke-width="1"/><text x="397.0" y="689.5" text-anchor="middle" font-size="15" font-weight="bold" fill="#17313a">.text</text><text x="397.0" y="710.5" text-anchor="middle" font-size="15" font-weight="normal" fill="#17313a">received instructions</text><rect x="532" y="615" width="230" height="160" fill="#f4f8f8" stroke="#637983" stroke-width="1"/><text x="647.0" y="689.5" text-anchor="middle" font-size="15" font-weight="bold" fill="#17313a">.data</text><text x="647.0" y="710.5" text-anchor="middle" font-size="15" font-weight="normal" fill="#17313a">received globals</text><rect x="762" y="615" width="310" height="160" fill="#f4f8f8" stroke="#637983" stroke-width="1"/><text x="917.0" y="689.5" text-anchor="middle" font-size="15" font-weight="bold" fill="#17313a">User Process Heap</text><text x="917.0" y="710.5" text-anchor="middle" font-size="15" font-weight="normal" fill="#17313a">reserved, uninitialized</text><rect x="1072" y="615" width="720" height="160" fill="#d8efef" stroke="#637983" stroke-width="1"/><text x="1432.0" y="647.5" text-anchor="middle" font-size="15" font-weight="bold" fill="#17313a">User Process Stack</text><text x="1432.0" y="668.5" text-anchor="middle" font-size="15" font-weight="normal" fill="#17313a">lower cells: uninitialized</text><text x="1432.0" y="689.5" text-anchor="middle" font-size="15" font-weight="normal" fill="#17313a">highest_stack_address = base_address + size − 1</text><text x="1432.0" y="710.5" text-anchor="middle" font-size="15" font-weight="normal" fill="#17313a">M[highest_stack_address] = activation.cs − 1</text><text x="1432.0" y="731.5" text-anchor="middle" font-size="15" font-weight="normal" fill="#17313a">no argc, argv[] or envp[] yet</text><text x="1432.0" y="752.5" text-anchor="middle" font-size="15" font-weight="normal" fill="#17313a">stack grows ←</text><rect x="32" y="615" width="1760" height="160" fill="none" stroke="#637983" stroke-width="1.5"/><rect x="32" y="775" width="100" height="30" fill="#eaf3f4" stroke="#637983" stroke-width="1"/><text x="82.0" y="796" text-anchor="middle" font-size="15" font-weight="bold" fill="#17313a">Metadata</text><rect x="132" y="775" width="630" height="30" fill="#f4f8f8" stroke="#637983" stroke-width="1"/><text x="447.0" y="796" text-anchor="middle" font-size="15" font-weight="bold" fill="#17313a">User Process Image</text><rect x="762" y="775" width="310" height="30" fill="#f4f8f8" stroke="#637983" stroke-width="1"/><text x="917.0" y="796" text-anchor="middle" font-size="15" font-weight="bold" fill="#17313a">User Process Heap</text><rect x="1072" y="775" width="720" height="30" fill="#d8efef" stroke="#637983" stroke-width="1"/><text x="1432.0" y="796" text-anchor="middle" font-size="15" font-weight="bold" fill="#17313a">User Process Stack</text><rect x="132" y="805" width="1660" height="30" fill="#f4f8f8" stroke="#637983" stroke-width="1"/><text x="962.0" y="826" text-anchor="middle" font-size="15" font-weight="bold" fill="#17313a">Process Payload B · one allocation for the new user process</text><path d="M 852.0 420 C 852.0 540, 197.0 540, 197.0 615" fill="none" stroke="#25734f" stroke-width="2" marker-end="url(#26715b)"/><rect x="466.1" y="519.375" width="116.80000000000001" height="22" fill="white" stroke="none" stroke-width="1"/><text x="524.5" y="535.375" text-anchor="middle" font-size="14" font-weight="normal" fill="#25734f">base_address</text><path d="M 1007.0 420 C 1007.0 560, 1432.0 560, 1432.0 615" fill="none" stroke="#167b84" stroke-width="2" marker-end="url(#405ea8)"/><rect x="1236.0" y="534.375" width="268.0" height="22" fill="white" stroke="none" stroke-width="1"/><text x="1370" y="550.375" text-anchor="middle" font-size="14" font-weight="normal" fill="#167b84">activation.sp / activation.baf</text><rect x="215" y="333.5" width="254" height="22" fill="none" stroke="#805916" stroke-width="2"/><rect x="540" y="333.5" width="194" height="22" fill="none" stroke="#805916" stroke-width="2"/><rect x="1072" y="615" width="720" height="160" fill="none" stroke="#805916" stroke-width="3"/></g></g></svg>
